<?xml version="1.0" standalone="no"?>
<!DOCTYPE svg PUBLIC "-//W3C//DTD SVG 20010904//EN"
 "http://www.w3.org/TR/2001/REC-SVG-20010904/DTD/svg10.dtd">
<svg version="1.0" xmlns="http://www.w3.org/2000/svg"
 width="1262.000000pt" height="661.000000pt" viewBox="0 0 1262.000000 661.000000"
 preserveAspectRatio="xMidYMid meet">

<g transform="translate(0.000000,661.000000) scale(0.100000,-0.100000)"
fill="black" stroke="none">
<path d="M0 6301 l0 -309 62 19 c333 101 698 96 1143 -16 281 -71 498 -155
938 -364 582 -277 672 -306 917 -305 183 1 258 20 553 137 249 99 327 127 462
162 365 95 702 93 953 -6 156 -62 300 -170 394 -297 52 -71 113 -198 135 -284
17 -68 20 -72 71 -104 98 -63 140 -167 129 -320 -11 -153 -63 -294 -135 -369
-36 -37 -121 -85 -152 -85 -17 0 -94 -156 -84 -171 2 -4 181 -8 397 -8 216 -1
1542 -6 2948 -12 l2556 -12 70 72 c83 84 170 130 262 138 54 5 62 9 86 42 72
94 181 137 329 128 92 -5 193 -35 251 -73 15 -9 68 -23 120 -30 51 -7 121 -24
154 -38 l61 -25 0 1220 0 1219 -6310 0 -6310 0 0 -309z"/>
<path d="M485 5804 c-185 -19 -342 -52 -438 -93 l-47 -20 2 -2388 3 -2388 90
-32 c165 -57 295 -77 515 -78 222 0 323 13 565 75 265 68 540 176 949 375 435
211 682 284 956 285 199 0 333 -32 655 -155 346 -133 500 -174 725 -196 223
-21 394 5 548 83 98 49 183 128 208 194 34 88 0 201 -81 273 -50 44 -96 65
-263 122 -247 85 -371 151 -480 253 -177 167 -245 383 -167 535 34 68 67 104
136 150 116 77 170 86 582 96 l227 5 0 -140 0 -140 -92 -2 c-51 -2 -118 -2
-148 0 -117 4 -346 -15 -381 -33 -49 -25 -79 -55 -79 -80 0 -38 49 -121 103
-174 96 -94 158 -126 401 -210 82 -28 185 -70 230 -93 227 -118 351 -373 291
-603 -24 -92 -73 -173 -155 -256 -274 -277 -762 -341 -1339 -174 -64 18 -217
72 -341 120 -298 114 -380 136 -545 142 -252 10 -449 -50 -927 -281 -421 -203
-688 -305 -982 -376 -259 -63 -452 -85 -661 -77 -190 8 -336 32 -497 81 l-48
15 0 -309 0 -310 6310 0 6310 0 0 1235 0 1235 -30 0 c-62 0 -222 43 -468 126
-139 46 -299 95 -355 109 -115 27 -284 45 -429 45 l-96 0 -7 113 c-11 173 -17
161 95 165 125 4 327 -13 453 -38 56 -12 208 -57 337 -102 248 -85 427 -137
473 -138 l27 0 0 439 0 439 -100 27 c-79 22 -100 31 -100 45 0 43 9 49 64 43
53 -5 53 -5 65 27 21 62 15 96 -25 128 -38 32 -119 62 -164 62 -49 0 -80 -18
-95 -55 -26 -60 -20 -79 29 -106 44 -23 44 -23 30 -51 -8 -15 -18 -28 -22 -28
-4 0 -57 15 -119 32 l-113 33 0 34 0 33 55 -4 54 -5 16 45 c21 62 19 74 -12
104 -41 38 -89 59 -148 65 -93 10 -121 -9 -139 -94 -7 -30 -5 -33 36 -54 24
-12 45 -23 47 -25 6 -5 -20 -64 -29 -64 -4 0 -60 16 -126 35 -65 19 -139 35
-164 35 -44 0 -47 -2 -140 -99 -92 -95 -97 -99 -149 -106 -58 -8 -2245 0
-4681 16 -1448 10 -1527 11 -1567 29 -75 33 -98 103 -68 206 9 32 52 136 95
229 43 94 92 211 110 262 21 60 36 90 44 87 7 -3 19 2 26 11 19 23 25 19 61
-37 l33 -52 18 42 c23 52 40 142 36 189 l-3 36 -44 -37 c-48 -41 -74 -43 -79
-8 -2 16 -8 22 -18 18 -11 -4 -14 7 -14 58 0 89 -26 227 -56 299 -140 333
-506 455 -1029 342 -147 -32 -266 -70 -503 -164 -354 -141 -455 -165 -682
-165 -290 0 -406 38 -1100 366 -386 183 -629 273 -892 332 -199 45 -456 72
-573 60z m3306 -940 c59 -56 92 -215 93 -449 1 -215 -33 -2335 -40 -2503 l-6
-133 -273 3 c-150 2 -276 6 -280 10 -4 4 -2 35 4 70 21 124 42 371 76 892 19
291 34 531 32 533 -2 1 -34 -70 -72 -160 -275 -653 -311 -729 -360 -761 -23
-15 -28 -15 -55 -1 -60 31 -80 72 -383 774 -34 79 -63 136 -65 128 -2 -9 6
-170 17 -359 26 -432 51 -947 51 -1056 l0 -84 -264 4 c-145 1 -267 6 -270 9
-8 8 41 2498 54 2684 12 181 29 278 62 344 66 130 162 100 266 -81 37 -66 132
-283 418 -963 47 -110 95 -224 107 -252 12 -29 25 -53 28 -53 4 0 37 71 74
158 316 742 394 920 438 1007 121 236 255 328 348 239z m-1926 -1549 l0 -1555
-330 6 c-181 4 -333 9 -337 13 -4 4 -3 55 2 114 5 59 12 246 15 415 3 169 7
409 10 535 l6 227 -104 0 c-57 0 -179 -3 -270 -7 l-167 -6 0 -653 0 -652 -247
4 c-137 3 -281 7 -321 10 l-74 6 6 31 c9 53 25 572 41 1362 9 413 20 932 25
1155 5 223 10 435 10 473 l0 67 310 0 310 0 -5 -157 c-3 -87 -10 -259 -15
-383 -5 -124 -13 -316 -16 -427 l-7 -203 265 0 265 0 7 308 c3 169 9 434 12
590 l7 282 301 0 301 0 0 -1555z m8254 65 c33 -11 75 -29 95 -41 l36 -21 0
-104 c0 -57 -2 -104 -5 -104 -2 0 -33 16 -68 35 -140 77 -247 57 -247 -45 0
-51 20 -73 131 -145 120 -78 143 -101 183 -185 29 -62 31 -71 31 -185 0 -115
-1 -123 -33 -187 -80 -165 -256 -199 -434 -84 l-48 31 0 124 0 124 55 -52 c92
-87 191 -115 248 -71 33 26 44 85 24 132 -15 35 -24 43 -172 141 -114 75 -157
150 -168 292 -21 263 149 421 372 345z m1153 -13 c100 -46 99 -44 96 -185 l-3
-123 -35 27 c-107 81 -224 99 -308 47 -52 -32 -105 -103 -124 -166 -20 -68
-17 -243 6 -302 28 -72 62 -120 109 -152 36 -24 52 -28 112 -28 76 1 114 15
206 82 l49 35 0 -125 0 -125 -46 -31 c-96 -63 -222 -89 -320 -65 -145 35 -266
195 -303 401 -17 92 -15 258 5 343 46 206 163 352 311 390 65 16 185 5 245
-23z m-5776 -12 c1 -11 2 -109 3 -217 l1 -198 170 0 170 0 0 220 0 221 88 -3
87 -3 3 -544 c1 -300 1 -550 -1 -555 -3 -7 -37 -10 -91 -8 l-86 3 0 230 0 229
-170 0 c-129 0 -170 -3 -170 -12 -1 -7 -2 -112 -3 -232 l-2 -219 -88 0 -87 0
0 552 c0 303 0 553 0 556 0 3 39 4 88 3 79 -3 87 -5 88 -23z m1182 -77 l-3
-103 -165 -1 -165 -2 -3 -116 -3 -116 161 0 161 0 -3 -102 -3 -103 -140 -2
c-77 -1 -148 -2 -157 -3 -16 0 -18 -13 -18 -130 l0 -130 170 0 170 0 0 -102 0
-103 -258 2 -257 2 -1 536 c-1 295 1 545 3 556 5 18 18 19 260 19 l254 0 -3
-102z m312 -353 l0 -455 178 -2 177 -3 -2 -98 -1 -98 -264 0 -263 0 -3 555 -2
556 90 0 90 0 0 -455z m530 283 l75 -171 32 69 c17 38 51 115 75 171 l43 103
108 0 c60 0 106 -3 104 -7 -2 -5 -14 -30 -27 -58 -12 -27 -74 -161 -137 -298
l-114 -247 1 -246 c1 -135 -1 -248 -4 -251 -3 -3 -41 -6 -85 -7 l-81 -1 0 256
0 256 -71 154 c-168 363 -199 432 -199 440 0 5 46 9 103 9 l102 0 75 -172z
m778 -35 c59 -111 110 -199 113 -195 4 4 53 96 110 204 l104 198 78 0 c45 0
77 -4 77 -10 0 -5 0 -256 0 -557 l0 -547 -87 1 -88 2 0 335 c0 185 -1 336 -2
336 -1 0 -111 -203 -157 -292 -36 -69 -51 -56 -146 125 l-85 162 -5 -335 c-4
-259 -8 -335 -17 -334 -7 1 -47 2 -88 3 l-75 1 0 555 0 556 81 -3 80 -3 107
-202z m805 -164 l2 -365 30 -59 c36 -70 68 -96 127 -102 83 -10 145 45 173
152 12 48 15 125 15 402 l0 343 91 0 91 0 -5 -392 c-3 -321 -7 -405 -21 -456
-53 -204 -186 -304 -374 -282 -115 14 -196 75 -249 187 -48 104 -55 162 -59
556 -3 202 -2 372 2 378 3 6 42 9 90 7 l84 -3 3 -366z m1467 -186 l0 -558 -90
3 -90 3 0 555 0 554 90 0 90 0 0 -557z"/>
</g>
</svg>
