<?xml version="1.0" standalone="no"?>
<!DOCTYPE svg PUBLIC "-//W3C//DTD SVG 20010904//EN"
 "http://www.w3.org/TR/2001/REC-SVG-20010904/DTD/svg10.dtd">
<svg version="1.0" xmlns="http://www.w3.org/2000/svg"
 width="1718.000000pt" height="661.000000pt" viewBox="0 0 1718.000000 661.000000"
 preserveAspectRatio="xMidYMid meet">

<g transform="translate(0.000000,661.000000) scale(0.100000,-0.100000)"
fill="white" stroke="none">
<path d="M0 3300 l0 -3300 8585 0 8585 0 0 3300 0 3300 -8585 0 -8585 0 0
-3300z m2990 2764 c295 -40 605 -128 927 -265 54 -23 202 -91 328 -151 597
-286 761 -339 999 -325 140 8 258 41 523 145 366 145 554 195 823 223 417 42
798 -111 989 -396 52 -79 104 -195 123 -275 11 -46 17 -55 64 -86 58 -39 110
-108 121 -163 14 -63 7 -232 -11 -300 -23 -84 -67 -171 -114 -223 -35 -39
-119 -88 -153 -88 -10 0 -29 -30 -54 -85 -21 -47 -36 -87 -34 -89 2 -2 1332
-9 2956 -16 l2952 -12 69 71 c79 81 167 129 257 138 53 6 60 10 119 68 53 53
73 66 130 84 123 38 268 22 396 -43 43 -22 87 -35 130 -40 91 -10 165 -32 238
-72 46 -25 75 -34 110 -34 69 0 168 -26 242 -64 48 -24 86 -35 140 -40 86 -9
173 -35 245 -75 37 -21 69 -30 125 -34 86 -7 174 -34 243 -77 40 -25 59 -30
112 -30 122 0 244 -57 356 -165 29 -27 61 -70 72 -95 27 -61 27 -173 0 -256
-18 -56 -19 -67 -7 -125 43 -204 -17 -401 -171 -555 -136 -136 -283 -198 -475
-197 -133 1 -233 31 -345 104 l-78 50 -68 -30 c-108 -48 -212 -72 -340 -78
-195 -9 -344 21 -681 137 -330 115 -439 138 -694 147 l-171 6 -7 90 c-11 163
-10 176 21 183 44 12 347 -5 466 -26 128 -21 279 -66 482 -140 217 -80 349
-111 490 -117 147 -7 237 13 388 83 133 63 124 65 335 -69 87 -54 175 -74 265
-59 129 23 233 98 288 210 19 39 24 63 24 137 0 108 -14 140 -81 185 -39 28
-45 36 -42 63 l3 32 57 -3 57 -4 16 57 17 57 -28 29 c-49 52 -102 70 -190 67
l-77 -3 -17 -61 -17 -60 43 -24 c46 -24 51 -34 30 -62 -12 -16 -21 -14 -134
19 -121 35 -122 36 -122 66 l0 29 59 -4 60 -4 10 42 c18 71 14 91 -22 118 -61
46 -176 71 -232 50 -19 -8 -40 -46 -49 -91 -7 -30 -5 -33 36 -54 24 -12 44
-23 46 -24 9 -8 -12 -55 -25 -55 -14 0 -222 58 -234 66 -3 2 -4 16 -1 32 4 28
5 28 57 24 60 -5 64 -2 72 68 5 44 3 54 -17 75 -49 52 -175 88 -233 66 -30
-12 -57 -62 -57 -106 0 -20 9 -30 44 -47 45 -21 45 -22 30 -50 -8 -15 -18 -28
-22 -28 -4 0 -59 16 -122 34 -115 33 -115 33 -118 66 l-3 33 60 -6 60 -7 12
55 c9 39 9 62 2 78 -24 52 -173 102 -248 83 -26 -7 -45 -38 -60 -98 -6 -22 -1
-29 39 -52 50 -29 51 -31 33 -62 l-12 -22 -119 34 c-65 18 -123 37 -128 42 -5
5 -6 21 -3 35 6 24 9 25 60 20 l53 -6 12 39 c7 22 10 53 8 69 -7 62 -144 127
-232 111 -42 -8 -65 -38 -73 -94 -5 -37 -4 -39 40 -62 l45 -24 -15 -29 c-9
-19 -20 -27 -31 -24 -9 2 -63 17 -119 33 l-103 29 0 33 0 34 57 -4 58 -3 14
53 c18 68 8 89 -58 125 -53 30 -139 45 -185 33 -27 -7 -49 -40 -60 -93 -7 -30
-5 -33 36 -54 24 -12 45 -23 47 -25 5 -5 -20 -64 -28 -64 -3 0 -60 16 -125 35
-188 55 -212 50 -316 -73 -30 -35 -66 -72 -80 -81 -22 -15 -152 -16 -1550 -13
-839 1 -2243 7 -3120 13 -1512 10 -1597 11 -1637 29 -75 33 -98 103 -68 206 9
32 54 140 100 239 45 99 95 218 110 264 15 45 31 78 35 72 4 -8 13 -5 25 9 10
11 21 20 25 20 4 0 22 -24 40 -52 l32 -53 18 35 c20 40 40 134 40 192 l0 39
-28 -15 c-15 -8 -36 -23 -46 -35 -26 -28 -44 -26 -52 5 -4 14 -12 23 -19 20
-9 -3 -14 23 -18 97 -8 128 -28 213 -73 302 -167 341 -615 433 -1204 249 -63
-20 -203 -71 -310 -114 -227 -91 -324 -122 -441 -145 -191 -36 -373 -30 -561
20 -153 40 -301 102 -738 310 -297 141 -429 196 -640 266 -302 99 -531 141
-770 142 -424 1 -743 -136 -1061 -454 -216 -215 -317 -418 -389 -778 -53 -268
-76 -514 -87 -938 -3 -155 -10 -260 -15 -257 -5 4 -16 -3 -24 -15 -21 -29 -29
-27 -71 20 -35 38 -38 40 -51 22 -16 -21 -12 -196 5 -227 8 -15 14 -13 46 23
40 44 77 54 77 21 0 -12 5 -17 13 -14 11 4 15 -40 20 -232 20 -697 93 -1129
238 -1413 92 -179 269 -366 486 -511 173 -116 328 -180 538 -222 148 -30 445
-32 608 -5 345 58 662 168 1122 389 307 148 368 174 532 231 220 77 308 92
523 91 175 0 191 -2 302 -32 65 -17 229 -74 365 -126 395 -150 571 -190 843
-189 136 0 179 4 245 22 179 47 331 151 370 254 34 91 5 199 -74 270 -55 50
-109 75 -301 142 -237 82 -334 134 -448 239 -110 102 -186 242 -199 365 -20
193 147 367 385 400 37 5 185 12 330 15 l262 5 0 -138 0 -138 -262 -6 c-145
-3 -287 -11 -316 -17 -64 -14 -122 -60 -122 -96 0 -61 76 -166 167 -230 76
-55 146 -87 338 -154 274 -95 388 -175 467 -325 139 -266 57 -538 -215 -719
-202 -134 -460 -191 -759 -167 -266 22 -455 70 -808 206 -327 126 -377 139
-580 139 -138 1 -179 -3 -251 -21 -155 -39 -339 -112 -624 -248 -406 -193
-579 -264 -827 -339 -687 -208 -1274 -154 -1748 161 -342 227 -567 497 -680
818 -98 278 -159 664 -177 1117 -6 169 -6 169 -32 183 -34 17 -74 61 -96 104
-36 72 -45 124 -45 273 0 135 2 153 25 211 26 64 68 118 115 148 24 16 24 19
32 200 23 580 112 1020 264 1309 153 290 484 601 798 751 305 146 644 193
1016 143z m2935 -1194 c62 -58 96 -208 98 -440 2 -202 -31 -2357 -39 -2528
l-6 -122 -248 0 c-136 0 -262 3 -280 6 -31 7 -32 8 -25 48 13 85 34 266 44
396 18 222 71 1053 68 1057 -2 1 -73 -160 -157 -360 -201 -475 -231 -536 -283
-564 -32 -17 -67 6 -110 69 -19 29 -113 232 -209 451 -95 219 -174 392 -176
383 -2 -8 6 -169 17 -358 26 -432 51 -947 51 -1056 l0 -84 -264 4 c-145 1
-267 6 -270 9 -6 6 39 2392 49 2624 16 342 72 497 174 481 42 -6 107 -71 160
-160 19 -32 146 -322 283 -644 136 -323 253 -598 259 -612 10 -22 34 30 248
530 131 305 250 580 266 610 68 134 150 236 220 274 39 21 100 14 130 -14z
m-1920 -1555 l0 -1555 -330 6 c-181 4 -333 9 -337 13 -4 4 -3 55 2 114 5 59
12 246 15 415 3 169 7 409 10 535 l6 227 -98 0 c-54 0 -176 -3 -270 -7 l-173
-6 0 -653 0 -652 -257 4 c-142 3 -286 7 -321 10 l-63 6 5 51 c3 29 8 88 11
132 4 66 65 2723 65 2863 l0 42 310 0 310 0 -5 -157 c-3 -87 -10 -259 -15
-383 -5 -124 -13 -316 -16 -427 l-7 -203 265 0 265 0 7 308 c3 169 9 434 12
590 l7 282 301 0 301 0 0 -1555z m8311 41 l74 -35 0 -106 c0 -59 -3 -105 -7
-103 -5 2 -36 18 -70 35 -86 45 -144 57 -187 39 -40 -17 -56 -42 -56 -88 0
-49 22 -73 129 -143 116 -75 151 -111 188 -190 26 -55 28 -69 28 -175 -1 -135
-22 -203 -82 -265 -52 -54 -104 -75 -188 -75 -75 0 -146 26 -212 76 l-33 25 0
121 0 121 55 -52 c64 -61 124 -90 181 -91 78 0 120 65 94 144 -12 38 -50 72
-144 126 -77 46 -129 98 -163 162 -24 46 -28 67 -31 163 -2 63 1 128 7 152 13
49 66 129 102 155 80 59 196 61 315 4z m1041 31 c28 -8 74 -28 102 -46 l51
-33 0 -125 0 -124 -45 31 c-73 50 -134 73 -195 73 -148 0 -250 -137 -250 -338
0 -203 102 -345 250 -345 54 0 96 17 178 71 l72 49 0 -123 0 -122 -48 -33
c-85 -57 -145 -75 -247 -70 -76 3 -98 8 -144 33 -92 50 -160 143 -207 281 -36
106 -45 311 -19 430 32 149 123 294 223 356 74 46 184 59 279 35z m-5727 -227
l0 -220 175 0 175 0 0 220 0 220 85 0 85 0 0 -555 0 -555 -85 0 -85 0 0 235 0
235 -172 -2 -173 -3 -3 -232 -2 -233 -85 0 -85 0 0 555 0 555 85 0 85 0 0
-220z m1190 120 l0 -100 -170 0 -170 0 0 -120 0 -120 160 0 160 0 0 -100 0
-100 -160 0 -160 0 0 -135 0 -135 170 0 170 0 0 -100 0 -100 -255 0 -255 0 0
555 0 555 255 0 255 0 0 -100z m310 -355 l0 -455 175 0 175 0 0 -100 0 -100
-265 0 -265 0 0 555 0 555 90 0 90 0 0 -455z m529 284 c41 -93 77 -166 81
-162 4 4 38 81 76 170 l69 162 107 1 107 0 -33 -72 c-18 -40 -81 -177 -139
-304 l-107 -231 0 -251 0 -252 -85 0 -85 0 0 254 0 254 -135 293 c-74 161
-135 296 -135 301 0 4 46 8 103 8 l103 0 73 -171z m777 -35 c85 -161 110 -202
119 -191 5 8 55 101 110 206 l100 190 78 1 77 0 0 -555 0 -555 -85 0 -85 0 -2
338 -3 337 -90 -168 c-73 -136 -94 -167 -110 -165 -14 2 -43 48 -105 163 l-85
160 -3 -332 -2 -333 -90 0 -90 0 0 555 0 555 79 0 79 0 108 -206z m806 -161
l3 -368 30 -60 c34 -67 64 -93 117 -101 84 -14 147 33 178 133 18 60 20 93 20
414 l0 349 91 0 91 0 -5 -392 c-3 -319 -7 -405 -21 -456 -21 -82 -48 -134 -99
-189 -62 -68 -105 -86 -215 -91 -88 -4 -96 -3 -157 27 -70 35 -112 78 -150
156 -49 99 -55 159 -55 568 l0 377 84 0 85 0 3 -367z m1468 -188 l0 -555 -90
0 -90 0 0 555 0 555 90 0 90 0 0 -555z"/>
</g>
</svg>
